<?xml version="1.0" encoding="UTF-8"?>
<!DOCTYPE svg PUBLIC "-//W3C//DTD SVG 1.1//EN" "http://www.w3.org/Graphics/SVG/1.1/DTD/svg11.dtd">
<!-- Creator: CorelDRAW 2021 (64-Bit) -->
<svg xmlns="http://www.w3.org/2000/svg" xml:space="preserve" width="0.934917in" height="1.65971in" version="1.1" style="shape-rendering:geometricPrecision; text-rendering:geometricPrecision; image-rendering:optimizeQuality; fill-rule:evenodd; clip-rule:evenodd"
viewBox="0 0 64.27 114.1"
 xmlns:xlink="http://www.w3.org/1999/xlink"
 xmlns:xodm="http://www.corel.com/coreldraw/odm/2003">
 <defs>
  <style type="text/css">
   <![CDATA[
    .fil1 {fill:#D8B39F;fill-rule:nonzero}
    .fil0 {fill:white;fill-rule:nonzero}
   ]]>
  </style>
 </defs>
 <g id="Layer_x0020_1">
  <metadata id="CorelCorpID_0Corel-Layer"/>
  <path class="fil0" d="M47.11 65.16l0 -5.12 0 -2.61c0,-1.73 -0.36,-3.37 -1.02,-4.86 -0.07,-0.15 -0.14,-0.3 -0.21,-0.45l-0.03 -0.06c-0.08,-0.16 -0.16,-0.32 -0.25,-0.48 -0,-0 -0,-0.01 -0.01,-0.01 -0.09,-0.16 -0.18,-0.31 -0.27,-0.47 -0,-0 -0,-0 -0,-0.01 -0.48,-0.78 -1.05,-1.5 -1.69,-2.14 -0,-0 -0.01,-0.01 -0.01,-0.01 -0.12,-0.12 -0.25,-0.25 -0.38,-0.36 -0.01,-0.01 -0.02,-0.02 -0.02,-0.02 -0.13,-0.12 -0.25,-0.23 -0.38,-0.34 -0.01,-0.01 -0.02,-0.02 -0.03,-0.03 -0.13,-0.11 -0.26,-0.21 -0.39,-0.32 -0.01,-0.01 -0.03,-0.02 -0.04,-0.03 -0.13,-0.1 -0.27,-0.2 -0.4,-0.3 -0.01,-0.01 -0.03,-0.02 -0.04,-0.03 -0.14,-0.1 -0.28,-0.19 -0.42,-0.28 -0.01,-0.01 -0.02,-0.02 -0.04,-0.02 -0.15,-0.09 -0.29,-0.18 -0.44,-0.27 -0.01,-0 -0.02,-0.01 -0.02,-0.01 -0.1,-0.06 -0.21,-0.13 -0.32,-0.18l-0.15 -0.08c-0.16,-0.08 -0.33,-0.16 -0.49,-0.24l-0.07 -0.03c-0.11,-0.05 -0.32,-0.14 -0.43,-0.18 -0.01,-0 -0.02,-0.01 -0.03,-0.01 -0.16,-0.06 -0.32,-0.12 -0.48,-0.18 -0.02,-0.01 -0.04,-0.01 -0.06,-0.02 -0.16,-0.05 -0.32,-0.1 -0.47,-0.15 -0.02,-0.01 -0.05,-0.01 -0.07,-0.02 -0.16,-0.05 -0.32,-0.09 -0.48,-0.13 -0.02,-0.01 -0.05,-0.01 -0.07,-0.02 -0.16,-0.04 -0.32,-0.07 -0.49,-0.11 -0.02,-0.01 -0.05,-0.01 -0.07,-0.01 -0.16,-0.03 -0.33,-0.06 -0.5,-0.08 -0.02,-0 -0.05,-0.01 -0.07,-0.01 -0.17,-0.02 -0.34,-0.04 -0.51,-0.06 -0.02,-0 -0.04,-0 -0.06,-0 -0.18,-0.02 -0.35,-0.03 -0.53,-0.04 -0.01,-0 -0.02,-0 -0.04,-0 -0.19,-0.01 -0.37,-0.01 -0.56,-0.01 -0.18,0 -0.35,0 -0.52,0.01 -0.02,0 -0.05,0 -0.07,0 -0.13,0.01 -0.36,0.02 -0.49,0.03 -0.03,0 -0.07,0.01 -0.11,0.01 -0.17,0.02 -0.34,0.04 -0.51,0.06 -0.04,0.01 -0.08,0.01 -0.13,0.02 -0.13,0.02 -0.26,0.04 -0.4,0.07 -0.04,0.01 -0.09,0.02 -0.13,0.02 -0.16,0.03 -0.32,0.07 -0.49,0.11 -0.02,0.01 -0.05,0.01 -0.07,0.02 -0.13,0.03 -0.27,0.07 -0.4,0.11 -0.05,0.02 -0.11,0.03 -0.16,0.05 -0.15,0.05 -0.31,0.09 -0.46,0.15 -0.02,0.01 -0.03,0.01 -0.05,0.02 -0.14,0.05 -0.28,0.1 -0.42,0.16 -0.05,0.02 -0.1,0.04 -0.15,0.06 -0.11,0.05 -0.23,0.09 -0.34,0.14 -0.04,0.02 -0.08,0.04 -0.12,0.05 -0.14,0.06 -0.28,0.13 -0.42,0.2 -0.05,0.02 -0.1,0.05 -0.14,0.07 -0.1,0.05 -0.2,0.11 -0.3,0.16 -0.05,0.03 -0.1,0.05 -0.15,0.08 -0.13,0.08 -0.26,0.15 -0.39,0.23 -0.05,0.03 -0.1,0.06 -0.15,0.1 -0.1,0.07 -0.2,0.13 -0.3,0.2 -0.04,0.02 -0.07,0.05 -0.11,0.07 -0.11,0.08 -0.21,0.15 -0.31,0.23 -0.05,0.04 -0.1,0.08 -0.15,0.12 -0.09,0.07 -0.18,0.14 -0.27,0.22 -0.05,0.04 -0.1,0.08 -0.15,0.13 -0.08,0.07 -0.16,0.14 -0.23,0.2 -0.04,0.04 -0.09,0.08 -0.13,0.12 -0.11,0.1 -0.21,0.2 -0.31,0.3 -0.05,0.05 -0.1,0.1 -0.14,0.15 -0.06,0.07 -0.13,0.13 -0.19,0.2 -0.05,0.05 -0.09,0.1 -0.14,0.15 -0.09,0.11 -0.19,0.21 -0.28,0.32 -0.04,0.05 -0.08,0.11 -0.13,0.16 -0.06,0.07 -0.11,0.14 -0.17,0.22 -0.04,0.06 -0.09,0.12 -0.13,0.17 -0.06,0.09 -0.13,0.18 -0.19,0.26 -0.05,0.08 -0.11,0.16 -0.16,0.23 -0.05,0.08 -0.11,0.16 -0.16,0.25 -0.04,0.06 -0.08,0.13 -0.12,0.19 -0.02,0.03 -0.03,0.05 -0.05,0.08l0 0c-0,0 -0,0 -0,0l0 -0 0 -0.01 -4.17 0c0.87,-2.06 2.19,-3.94 3.91,-5.51 2.78,-2.54 6.39,-4 10.15,-4.11 4.36,-0.13 8.47,1.49 11.56,4.54 3.04,3 4.7,7.14 4.7,11.42l0 7.55 5.12 0 0 -7.73c0,-11.54 -9.36,-20.9 -20.9,-20.9 -1.91,0 -3.76,0.26 -5.52,0.74 -8.58,2.34 -14.46,10.24 -14.47,19.13l0 0 7.97 0 1.64 0 3.51 0c0.34,-2.24 1.75,-4.12 3.69,-5.13 0.11,-0.06 0.22,-0.11 0.33,-0.16 0.01,-0 0.02,-0.01 0.02,-0.01 0.24,-0.11 0.48,-0.2 0.73,-0.28 0.02,-0.01 0.04,-0.01 0.06,-0.02 0.11,-0.03 0.21,-0.06 0.32,-0.09 0.02,-0.01 0.05,-0.01 0.07,-0.02 0.25,-0.06 0.5,-0.11 0.75,-0.14 0.03,-0 0.07,-0.01 0.11,-0.01 0.09,-0.01 0.19,-0.02 0.28,-0.03 0.04,-0 0.07,-0.01 0.11,-0.01 0.13,-0.01 0.26,-0.01 0.39,-0.01 0.11,0 0.23,0 0.34,0.01 0.04,0 0.08,0.01 0.11,0.01 0.08,0 0.15,0.01 0.22,0.02 0.04,0 0.09,0.01 0.13,0.02 0.07,0.01 0.13,0.02 0.2,0.03 0.05,0.01 0.09,0.01 0.14,0.02 0.06,0.01 0.13,0.02 0.19,0.03 0.05,0.01 0.09,0.02 0.14,0.03 0.06,0.01 0.12,0.03 0.18,0.04 0.05,0.01 0.09,0.02 0.14,0.04 0.06,0.02 0.12,0.03 0.18,0.05 0.04,0.01 0.09,0.03 0.14,0.04 0.06,0.02 0.12,0.04 0.18,0.06 0.04,0.02 0.09,0.03 0.13,0.05 0.06,0.02 0.12,0.05 0.18,0.07 0.04,0.02 0.08,0.03 0.12,0.05 0.06,0.03 0.13,0.06 0.19,0.09 0.03,0.02 0.07,0.03 0.1,0.05 0.1,0.05 0.19,0.09 0.28,0.14 0.02,0.01 0.04,0.02 0.06,0.04 0.07,0.04 0.14,0.08 0.21,0.12 0.04,0.02 0.07,0.05 0.11,0.07 0.05,0.03 0.11,0.07 0.16,0.1 0.04,0.03 0.08,0.05 0.12,0.08 0.05,0.03 0.1,0.07 0.14,0.1 0.04,0.03 0.08,0.06 0.12,0.09 0.04,0.03 0.09,0.07 0.13,0.1 0.04,0.03 0.08,0.06 0.12,0.1 0.04,0.04 0.08,0.07 0.13,0.11 0.04,0.03 0.08,0.07 0.11,0.1 0.04,0.04 0.08,0.07 0.12,0.11 0.04,0.04 0.07,0.07 0.11,0.11 0.04,0.04 0.07,0.08 0.11,0.12 0.04,0.04 0.07,0.08 0.11,0.12 0.04,0.04 0.07,0.08 0.11,0.12 0.03,0.04 0.07,0.08 0.1,0.12 0.03,0.04 0.07,0.08 0.1,0.13 0.03,0.04 0.06,0.08 0.1,0.13 0.03,0.05 0.07,0.09 0.1,0.14 0.06,0.08 0.11,0.17 0.17,0.25 0.03,0.04 0.05,0.08 0.08,0.12 0.03,0.05 0.06,0.1 0.09,0.15 0.02,0.04 0.05,0.08 0.07,0.13 0.03,0.05 0.05,0.1 0.08,0.15 0.02,0.04 0.05,0.09 0.07,0.13 0.02,0.05 0.05,0.1 0.07,0.16 0.02,0.04 0.04,0.09 0.06,0.13 0.02,0.05 0.04,0.11 0.07,0.16 0.02,0.04 0.04,0.09 0.05,0.14 0.02,0.05 0.04,0.11 0.06,0.16 0.02,0.05 0.03,0.09 0.05,0.14 0.02,0.06 0.04,0.11 0.05,0.17 0.01,0.05 0.03,0.09 0.04,0.14 0.02,0.06 0.03,0.11 0.05,0.17 0.01,0.05 0.02,0.09 0.03,0.14 0.01,0.06 0.03,0.12 0.04,0.18 0.01,0.05 0.02,0.09 0.02,0.14 0.01,0.06 0.02,0.12 0.03,0.19l0 0c0.05,0.34 0.08,0.68 0.08,1.04l0 2.61 -30.91 0 -2.77 5.12 38.8 0 0 -0z"/>
  <path class="fil0" d="M29 35.25c0.97,-0.26 1.95,-0.46 2.95,-0.6l0 -34.65 -11.11 4.16 0 35.38c2.33,-1.96 5.1,-3.45 8.16,-4.29z"/>
  <path class="fil1" d="M33.33 15.96l0 18.55c0.57,-0.04 1.15,-0.06 1.73,-0.06 0.91,0 1.81,0.05 2.69,0.16l0 -21.75 -4.42 3.11z"/>
  <path class="fil1" d="M19.45 9.38l-4.33 3.07 0 34.51c1.08,-2.29 2.55,-4.37 4.33,-6.15l0 -31.43z"/>
  <polygon class="fil0" points="10.72,103.21 6.97,103.21 6.97,114.1 4,114.1 4,103.21 0.27,103.21 0.27,100.81 10.72,100.81 "/>
  <path class="fil0" d="M18.14 103.3c-1.04,0 -1.86,0.38 -2.48,1.14 -0.61,0.76 -0.92,1.77 -0.92,3.03 0,1.27 0.31,2.28 0.92,3.02 0.61,0.74 1.41,1.11 2.4,1.11 1.02,0 1.83,-0.36 2.43,-1.08 0.6,-0.72 0.9,-1.72 0.9,-3 0,-1.33 -0.29,-2.37 -0.87,-3.11 -0.58,-0.74 -1.37,-1.11 -2.38,-1.11zm-0.13 10.8c-1.88,0 -3.42,-0.6 -4.6,-1.8 -1.19,-1.2 -1.78,-2.76 -1.78,-4.68 0,-2.03 0.6,-3.68 1.81,-4.93 1.21,-1.26 2.8,-1.88 4.79,-1.88 1.88,0 3.39,0.6 4.55,1.8 1.16,1.2 1.74,2.79 1.74,4.75 0,2.02 -0.6,3.65 -1.8,4.89 -1.2,1.24 -2.77,1.86 -4.7,1.86z"/>
  <path class="fil0" d="M30.32 103.01l0 3.64 1.28 0c0.64,0 1.15,-0.18 1.53,-0.55 0.39,-0.37 0.59,-0.83 0.59,-1.38 0,-1.14 -0.69,-1.71 -2.06,-1.71l-1.34 0zm8.07 11.09l-3.4 0 -2.04 -3.59c-0.15,-0.25 -0.3,-0.48 -0.44,-0.68 -0.14,-0.2 -0.28,-0.37 -0.43,-0.52 -0.14,-0.14 -0.29,-0.25 -0.45,-0.33 -0.16,-0.08 -0.33,-0.11 -0.51,-0.11l-0.8 0 0 5.23 -2.96 0 0 -13.29 4.7 0c3.19,0 4.79,1.18 4.79,3.55 0,0.46 -0.07,0.88 -0.21,1.26 -0.14,0.39 -0.34,0.73 -0.6,1.04 -0.26,0.31 -0.57,0.58 -0.93,0.8 -0.36,0.23 -0.77,0.4 -1.21,0.53l0 0.04c0.19,0.06 0.38,0.16 0.57,0.3 0.18,0.14 0.36,0.3 0.53,0.48 0.17,0.18 0.34,0.38 0.49,0.59 0.16,0.21 0.3,0.41 0.43,0.61l2.49 4.09z"/>
  <path class="fil0" d="M51 108.22c0,3.92 -1.84,5.89 -5.52,5.89 -3.57,0 -5.36,-1.92 -5.36,-5.75l0 -7.54 2.97 0 0 7.58c0,2.11 0.83,3.17 2.49,3.17 1.63,0 2.45,-1.02 2.45,-3.06l0 -7.69 2.96 0 0 7.41z"/>
  <polygon class="fil0" points="64.27,114.1 53.39,114.1 53.39,112.41 60.44,103.21 54.19,103.21 54.19,100.81 64.27,100.81 64.27,102.46 57.37,111.72 64.27,111.72 "/>
  <path class="fil0" d="M3.64 92.36c0,1.3 -0.43,1.73 -1.34,1.73 -0.43,0 -0.98,-0.09 -1.64,-0.25l-0.66 2.96c1.05,0.34 2.02,0.5 2.86,0.5 2.66,0 4.21,-1.64 4.21,-4.93l0 -6.93 -3.43 0 0 6.93z"/>
  <path class="fil0" d="M5.37 80.37c-1.07,0 -1.93,0.86 -1.93,1.93 0,1.07 0.86,1.93 1.93,1.93 1.07,0 1.93,-0.86 1.93,-1.93 0,-1.07 -0.86,-1.93 -1.93,-1.93z"/>
  <path class="fil0" d="M58 89l-7.96 0 0 -0.18c0.11,-3.34 3.25,-5.48 6.57,-5.48 2.64,0 4.23,1.39 4.23,3.43 0,1.48 -0.93,2.23 -2.84,2.23zm-1.39 -9.09c-3.05,0 -5.27,1.14 -6.57,3.34l0.02 -6.51 -3.41 0 0 12.26 -0.34 0 -27.24 0c0,0 0,0 -0,0l0 0c-1.23,0 -2.18,-0.25 -2.77,-0.84 -0.45,-0.48 -0.73,-1.16 -0.73,-2.07l0 -0.65 -3.43 0 0 6.93c0,1.3 -0.43,1.73 -1.34,1.73 -0.43,0 -0.98,-0.09 -1.64,-0.25l-0.66 2.96c1.05,0.34 2.02,0.5 2.86,0.5 2.66,0 4.21,-1.64 4.21,-4.93l0 -0.73c0.86,0.48 2.02,0.73 3.5,0.73l0 0 27.24 0 11.68 0c3.75,0 6.28,-2.25 6.28,-5.59 0,-3.91 -3.39,-6.87 -7.66,-6.87z"/>
 </g>
</svg>
